<svg display="none" xmlns="http://www.w3.org/2000/svg">
    <symbol id="logo-big" width="270" height="100" viewBox="0 0 270 100" fill="none">
        <path
            d="M20.3089 23H31.161L51.3924 78H40.3853L35.2693 64.2887H16.0456L11.0071 78H0L20.3089 23ZM33.3314 56.7747L25.735 34.0775L17.8284 56.7747H33.3314Z"
            fill="white" />
        <path
            d="M63.165 23L76.8076 43.2958L90.3728 23H102L82.9313 50.8873L101.38 78H89.7526L76.8076 58.4789L63.7851 78H52.0804L70.5289 50.8873L51.4602 23H63.165Z"
            fill="white" />
        <path d="M107 78V23H117.64V78H107Z" fill="#EC7979" />
        <path d="M170 32.3732H152.499V78H141.936V32.3732H124.435V23H170V32.3732Z" fill="#EC7979" />
    </symbol>

    <symbol id="facebook" width="55" height="55" viewBox="0 0 70 70" fill="none">
        <path
            d="M7.82702 55.7083H19.4937V32.3458H30.0054L31.1604 20.7375H19.4937V14.875C19.4937 14.1014 19.801 13.3595 20.348 12.8126C20.8949 12.2656 21.6368 11.9583 22.4104 11.9583H31.1604V0.291626H22.4104C18.5426 0.291626 14.8333 1.82808 12.0984 4.56299C9.36347 7.29789 7.82702 11.0072 7.82702 14.875V20.7375H1.99368L0.838684 32.3458H7.82702V55.7083Z"
            fill="#CCCCCC" />
    </symbol>
    <symbol id="twitter" width="55" height="55" viewBox="0 0 59 48" fill="none">
        <path
            d="M52.2629 12.3247C52.3008 12.8351 52.3008 13.3426 52.3008 13.8501C52.3008 29.3813 40.4796 47.278 18.8758 47.278C12.22 47.278 6.03665 45.3501 0.833313 42.0018C1.77831 42.1097 2.68831 42.1476 3.67123 42.1476C8.95912 42.1604 14.0973 40.3922 18.2575 37.128C15.8058 37.0836 13.4292 36.2748 11.4594 34.8143C9.48969 33.3539 8.02518 31.3148 7.2704 28.9818C7.99665 29.0897 8.72581 29.1626 9.48998 29.1626C10.5429 29.1626 11.6016 29.0168 12.5846 28.763C9.92386 28.2258 7.53136 26.7836 5.81387 24.6817C4.09637 22.5797 3.15992 19.9478 3.16373 17.2334V17.0876C4.72998 17.9597 6.54706 18.5051 8.47206 18.578C6.85941 17.5064 5.53708 16.0522 4.62305 14.3453C3.70903 12.6384 3.23173 10.7317 3.23373 8.7955C3.23373 6.61384 3.81415 4.613 4.83206 2.86884C7.78413 6.50014 11.466 9.47089 15.6393 11.5887C19.8126 13.7065 24.3841 14.924 29.0579 15.1626C28.8771 14.2876 28.7662 13.3805 28.7662 12.4705C28.7655 10.9275 29.0688 9.39942 29.659 7.9737C30.2491 6.54798 31.1144 5.25255 32.2055 4.16147C33.2966 3.07038 34.592 2.20503 36.0178 1.6149C37.4435 1.02476 38.9715 0.721403 40.5146 0.722169C43.8979 0.722169 46.9516 2.13967 49.0983 4.43217C51.7285 3.92355 54.2507 2.9634 56.5533 1.59425C55.6766 4.30913 53.8401 6.61122 51.3879 8.06925C53.7206 7.80319 56.0004 7.18974 58.1516 6.24925C56.5449 8.59162 54.554 10.6457 52.2629 12.3247Z"
            fill="#CCCCCC" />
    </symbol>
    <symbol id="linkedin" width="55" height="55" viewBox="0 0 54 54" fill="none">
        <path
            d="M50.3333 0.75H3.66667C2.89312 0.75 2.15125 1.05729 1.60427 1.60427C1.05729 2.15125 0.75 2.89312 0.75 3.66667V50.3333C0.75 51.1069 1.05729 51.8488 1.60427 52.3957C2.15125 52.9427 2.89312 53.25 3.66667 53.25H50.3333C51.1069 53.25 51.8488 52.9427 52.3957 52.3957C52.9427 51.8488 53.25 51.1069 53.25 50.3333V3.66667C53.25 2.89312 52.9427 2.15125 52.3957 1.60427C51.8488 1.05729 51.1069 0.75 50.3333 0.75ZM16.3221 45.4829H8.52875V20.4287H16.3221V45.4829ZM12.4254 17.0075C11.228 17.0075 10.0796 16.5318 9.23283 15.6851C8.3861 14.8384 7.91042 13.69 7.91042 12.4925C7.91042 11.295 8.3861 10.1466 9.23283 9.29991C10.0796 8.45319 11.228 7.9775 12.4254 7.9775C13.6229 7.9775 14.7713 8.45319 15.618 9.29991C16.4647 10.1466 16.9404 11.295 16.9404 12.4925C16.9404 13.69 16.4647 14.8384 15.618 15.6851C14.7713 16.5318 13.6229 17.0075 12.4254 17.0075ZM45.4858 45.4829H37.7012V33.3C37.7012 30.395 37.6488 26.6588 33.6529 26.6588C29.5988 26.6588 28.9833 29.8263 28.9833 33.0958V45.4858H21.2046V20.4317H28.6713V23.8558H28.7792C29.8146 21.8871 32.3579 19.8104 36.1408 19.8104C44.0275 19.8104 45.4829 24.9963 45.4829 31.7454V45.4829H45.4858Z"
            fill="#CCCCCC" />
    </symbol>
    <symbol id="pinterest" width="55" height="55" viewBox="0 0 60 60" fill="none">
        <path
            d="M21.3667 57.8251C24.1667 58.6709 26.9958 59.1667 30 59.1667C37.7355 59.1667 45.1542 56.0938 50.624 50.624C56.0938 45.1542 59.1667 37.7355 59.1667 30C59.1667 26.1698 58.4123 22.3771 56.9465 18.8384C55.4807 15.2998 53.3323 12.0845 50.624 9.37609C47.9156 6.66772 44.7003 4.51932 41.1616 3.05355C37.623 1.58779 33.8302 0.833374 30 0.833374C26.1698 0.833374 22.3771 1.58779 18.8384 3.05355C15.2997 4.51932 12.0844 6.66772 9.37606 9.37609C3.90625 14.8459 0.833344 22.2646 0.833344 30C0.833344 42.3959 8.62084 53.0417 19.6167 57.2417C19.3542 54.9667 19.0917 51.2042 19.6167 48.6084L22.9708 34.2C22.9708 34.2 22.125 32.5084 22.125 29.825C22.125 25.8 24.6333 22.7959 27.4917 22.7959C30 22.7959 31.1667 24.6334 31.1667 26.9959C31.1667 29.5042 29.5042 33.0917 28.6583 36.5334C28.1625 39.3917 30.175 41.9 33.0917 41.9C38.2833 41.9 42.3083 36.3584 42.3083 28.5417C42.3083 21.5417 37.2917 16.7584 30.0875 16.7584C21.8625 16.7584 17.0208 22.8834 17.0208 29.3292C17.0208 31.8375 17.8375 34.375 19.1792 36.0375C19.4417 36.2125 19.4417 36.4459 19.3542 36.8834L18.5083 40.0625C18.5083 40.5584 18.1875 40.7334 17.6917 40.3834C13.9583 38.75 11.8 33.4417 11.8 29.1542C11.8 19.9375 18.3333 11.5667 30.9333 11.5667C40.9667 11.5667 48.7834 18.7709 48.7834 28.3375C48.7834 38.3709 42.5709 46.4209 33.675 46.4209C30.8458 46.4209 28.075 44.9042 27.0833 43.125L25.1292 50.0375C24.4583 52.5459 22.6208 55.9 21.3667 57.9125V57.8251Z"
            fill="#CCCCCC" />
    </symbol>
    <symbol id="inst" width="55" height="55" viewBox="0 0 54 54" fill="none">
        <path
            d="M53.0956 16.2228C53.0661 14.0138 52.6526 11.8267 51.8735 9.75946C51.1978 8.01574 50.1659 6.43212 48.8436 5.1098C47.5212 3.78748 45.9376 2.75552 44.1939 2.07988C42.1532 1.31383 39.9973 0.89962 37.8181 0.854875C35.0122 0.729458 34.1226 0.694458 27.0001 0.694458C19.8776 0.694458 18.9647 0.694458 16.1793 0.854875C14.001 0.899949 11.8462 1.31416 9.80639 2.07988C8.0624 2.75505 6.47854 3.78684 5.15616 5.10922C3.83377 6.4316 2.80199 8.01546 2.12681 9.75946C1.35923 11.7986 0.94592 13.9539 0.904727 16.1324C0.779311 18.9411 0.741394 19.8307 0.741394 26.9532C0.741394 34.0757 0.741394 34.9857 0.904727 37.774C0.948477 39.9557 1.35973 42.1082 2.12681 44.1528C2.80312 45.8963 3.83567 47.4795 5.1585 48.8013C6.48132 50.1231 8.06533 51.1545 9.80931 51.8295C11.8435 52.6263 13.9987 53.0701 16.1822 53.142C18.991 53.2674 19.8806 53.3053 27.0031 53.3053C34.1256 53.3053 35.0385 53.3053 37.8239 53.142C40.0031 53.099 42.1591 52.6858 44.1997 51.9199C45.943 51.2434 47.5262 50.2112 48.8484 48.889C50.1707 47.5668 51.2029 45.9836 51.8793 44.2403C52.6464 42.1986 53.0576 40.0461 53.1014 37.8615C53.2268 35.0557 53.2647 34.1661 53.2647 27.0407C53.2589 19.9182 53.2589 19.014 53.0956 16.2228ZM26.9826 40.4224C19.5335 40.4224 13.4989 34.3878 13.4989 26.9386C13.4989 19.4895 19.5335 13.4549 26.9826 13.4549C30.5588 13.4549 33.9884 14.8755 36.5171 17.4042C39.0458 19.9329 40.4664 23.3625 40.4664 26.9386C40.4664 30.5147 39.0458 33.9444 36.5171 36.4731C33.9884 39.0018 30.5588 40.4224 26.9826 40.4224ZM41.0031 16.1003C40.5901 16.1007 40.181 16.0196 39.7994 15.8617C39.4177 15.7039 39.071 15.4723 38.7789 15.1802C38.4869 14.8882 38.2553 14.5414 38.0974 14.1598C37.9396 13.7782 37.8585 13.3691 37.8589 12.9561C37.8589 12.5434 37.9402 12.1348 38.0981 11.7535C38.2561 11.3722 38.4875 11.0257 38.7794 10.7339C39.0712 10.4421 39.4176 10.2106 39.7989 10.0526C40.1802 9.89471 40.5889 9.81342 41.0016 9.81342C41.4143 9.81342 41.823 9.89471 42.2043 10.0526C42.5856 10.2106 42.932 10.4421 43.2238 10.7339C43.5157 11.0257 43.7472 11.3722 43.9051 11.7535C44.063 12.1348 44.1443 12.5434 44.1443 12.9561C44.1443 14.6945 42.7385 16.1003 41.0031 16.1003Z"
            fill="#CCCCCC" />
    </symbol>
    <symbol id="git" width="55" height="55" viewBox="0 0 60 58" fill="none">
        <path fill-rule="evenodd" clip-rule="evenodd"
            d="M30.0754 0.833374C14.0075 0.833374 0.984543 13.8563 0.984543 29.9242C0.984543 42.775 9.31746 53.6805 20.8791 57.5305C22.3345 57.793 22.8595 56.8975 22.8595 56.1275C22.8595 55.4363 22.8362 53.6046 22.8275 51.1809C14.7337 52.9367 13.0245 47.2784 13.0245 47.2784C11.7062 43.9184 9.79579 43.023 9.79579 43.023C7.15621 41.2175 9.99704 41.2584 9.99704 41.2584C12.9195 41.4625 14.4508 44.2567 14.4508 44.2567C17.0466 48.7017 21.2641 47.4184 22.915 46.6746C23.1804 44.7934 23.9387 43.51 24.767 42.7838C18.3095 42.0517 11.5195 39.555 11.5195 28.4046C11.5195 25.2342 12.6541 22.6325 14.5062 20.6025C14.2116 19.8646 13.2054 16.9042 14.795 12.9025C14.795 12.9025 17.2362 12.118 22.7925 15.8805C25.1654 15.2349 27.6132 14.9054 30.0725 14.9005C32.5317 14.9044 34.9797 15.234 37.3525 15.8805C42.9116 12.115 45.35 12.9025 45.35 12.9025C46.9395 16.9042 45.942 19.8646 45.6387 20.6025C47.5054 22.6325 48.6254 25.2313 48.6254 28.4046C48.6254 39.5842 41.8295 42.04 35.3487 42.7605C36.3841 43.6588 37.3175 45.4321 37.3175 48.1446C37.3175 52.0355 37.2825 55.1738 37.2825 56.1275C37.2825 56.9063 37.8016 57.8105 39.2862 57.5246C50.842 53.6688 59.1662 42.7721 59.1662 29.9242C59.1662 13.8563 46.1433 0.833374 30.0754 0.833374Z"
            fill="#CCCCCC" />
    </symbol>
    <symbol id="rss" width="55" height="55" viewBox="0 0 70 70" fill="none">
        <path
            d="M18.025 58.3334C21.5366 58.3334 24.3833 55.4866 24.3833 51.975C24.3833 48.4634 21.5366 45.6167 18.025 45.6167C14.5134 45.6167 11.6667 48.4634 11.6667 51.975C11.6667 55.4866 14.5134 58.3334 18.025 58.3334Z"
            fill="#CCCCCC" />
        <path
            d="M11.6667 12.9498V21.204C32.1708 21.204 48.7958 37.829 48.7958 58.3332H57.05C57.05 33.279 36.7208 12.9498 11.6667 12.9498ZM11.6667 29.4582V37.7123C23.0417 37.7123 32.2875 46.9582 32.2875 58.3332H40.5417C40.5417 42.379 27.6208 29.4582 11.6667 29.4582Z"
            fill="#CCCCCC" />
    </symbol>
    <symbol id="lamp" width="170" height="170" viewBox="0 0 170 170" fill="none">
        <path
            d="M67.5502 87.7993H80.447H67.5502ZM74 49.1613V51.9212V49.1613ZM91.5637 56.4363L89.6125 58.3875L91.5637 56.4363ZM98.8387 74H96.0788H98.8387ZM51.9211 74H49.1613H51.9211ZM58.3875 58.3875L56.4362 56.4363L58.3875 58.3875ZM64.2411 83.7589C62.3116 81.8289 60.9977 79.3701 60.4656 76.6934C59.9334 74.0167 60.2069 71.2423 61.2514 68.721C62.296 66.1997 64.0647 64.0448 66.3339 62.5287C68.6031 61.0125 71.2709 60.2033 74 60.2033C76.729 60.2033 79.3969 61.0125 81.6661 62.5287C83.9353 64.0448 85.7039 66.1997 86.7485 68.721C87.793 71.2423 88.0665 74.0167 87.5344 76.6934C87.0022 79.3701 85.6883 81.8289 83.7588 83.7589L82.2464 85.2685C81.3818 86.1333 80.6959 87.16 80.2281 88.2898C79.7602 89.4197 79.5195 90.6306 79.5197 91.8535V93.319C79.5197 94.7829 78.9381 96.1869 77.903 97.222C76.8678 98.2572 75.4639 98.8387 74 98.8387C72.536 98.8387 71.1321 98.2572 70.0969 97.222C69.0618 96.1869 68.4803 94.7829 68.4803 93.319V91.8535C68.4803 89.3835 67.4977 87.0127 65.7535 85.2685L64.2411 83.7589Z"
            stroke="#EC7979" stroke-width="6.83333" stroke-linecap="round" stroke-linejoin="round" />
        <circle cx="74" cy="74" r="34.5" stroke="#EC7979" />
    </symbol>
    <symbol id="keyboard" width="170" height="170" viewBox="0 0 170 170" fill="none">
        <path
            d="M110.573 62C112.543 62 114.432 62.7786 115.825 64.1645C117.218 65.5505 118 67.4302 118 69.3902V100.61C118 102.57 117.218 104.45 115.825 105.835C114.432 107.221 112.543 108 110.573 108H59.427C58.4517 108 57.4859 107.809 56.5848 107.437C55.6838 107.066 54.865 106.522 54.1754 105.835C53.4858 105.149 52.9387 104.335 52.5655 103.438C52.1922 102.541 52.0001 101.58 52.0001 100.61V69.3902C52.0001 67.4302 52.7826 65.5505 54.1754 64.1645C55.5682 62.7786 57.4573 62 59.427 62H110.573V62ZM110.573 66.9268H59.427C58.7704 66.9268 58.1407 67.1863 57.6765 67.6483C57.2122 68.1103 56.9514 68.7369 56.9514 69.3902V100.61C56.9514 101.97 58.0604 103.073 59.427 103.073H110.573C111.23 103.073 111.86 102.814 112.324 102.352C112.788 101.89 113.049 101.263 113.049 100.61V69.3902C113.049 68.7369 112.788 68.1103 112.324 67.6483C111.86 67.1863 111.23 66.9268 110.573 66.9268V66.9268ZM67.679 93.2031H102.338C102.965 93.2033 103.569 93.4404 104.027 93.8665C104.485 94.2926 104.764 94.876 104.807 95.4986C104.85 96.1213 104.653 96.737 104.257 97.2211C103.862 97.7053 103.296 98.0219 102.674 98.107L102.338 98.13H67.679C67.0518 98.1298 66.448 97.8927 65.9897 97.4666C65.5314 97.0405 65.2527 96.4571 65.2099 95.8345C65.1672 95.2118 65.3636 94.5961 65.7594 94.112C66.1552 93.6278 66.721 93.3112 67.3424 93.2261L67.679 93.2031H102.338H67.679V93.2031ZM99.8621 81.7072C100.738 81.7072 101.577 82.0533 102.196 82.6693C102.815 83.2852 103.163 84.1207 103.163 84.9918C103.163 85.8629 102.815 86.6983 102.196 87.3143C101.577 87.9303 100.738 88.2763 99.8621 88.2763C98.9867 88.2763 98.1471 87.9303 97.5281 87.3143C96.909 86.6983 96.5613 85.8629 96.5613 84.9918C96.5613 84.1207 96.909 83.2852 97.5281 82.6693C98.1471 82.0533 98.9867 81.7072 99.8621 81.7072ZM80.0736 81.7072C80.9491 81.7072 81.7887 82.0533 82.4077 82.6693C83.0267 83.2852 83.3745 84.1207 83.3745 84.9918C83.3745 85.8629 83.0267 86.6983 82.4077 87.3143C81.7887 87.9303 80.9491 88.2763 80.0736 88.2763C79.1982 88.2763 78.3586 87.9303 77.7396 87.3143C77.1206 86.6983 76.7728 85.8629 76.7728 84.9918C76.7728 84.1207 77.1206 83.2852 77.7396 82.6693C78.3586 82.0533 79.1982 81.7072 80.0736 81.7072V81.7072ZM70.1712 81.7072C71.0466 81.7072 71.8862 82.0533 72.5052 82.6693C73.1242 83.2852 73.472 84.1207 73.472 84.9918C73.472 85.8629 73.1242 86.6983 72.5052 87.3143C71.8862 87.9303 71.0466 88.2763 70.1712 88.2763C69.2957 88.2763 68.4562 87.9303 67.8371 87.3143C67.2181 86.6983 66.8703 85.8629 66.8703 84.9918C66.8703 84.1207 67.2181 83.2852 67.8371 82.6693C68.4562 82.0533 69.2957 81.7072 70.1712 81.7072ZM89.9761 81.7072C90.8515 81.7072 91.6911 82.0533 92.3102 82.6693C92.9292 83.2852 93.2769 84.1207 93.2769 84.9918C93.2769 85.8629 92.9292 86.6983 92.3102 87.3143C91.6911 87.9303 90.8515 88.2763 89.9761 88.2763C89.1007 88.2763 88.2611 87.9303 87.6421 87.3143C87.0231 86.6983 86.6753 85.8629 86.6753 84.9918C86.6753 84.1207 87.0231 83.2852 87.6421 82.6693C88.2611 82.0533 89.1007 81.7072 89.9761 81.7072V81.7072ZM65.2034 71.8536C66.0789 71.8536 66.9184 72.1997 67.5375 72.8156C68.1565 73.4316 68.5042 74.2671 68.5042 75.1382C68.5042 76.0093 68.1565 76.8447 67.5375 77.4607C66.9184 78.0767 66.0789 78.4227 65.2034 78.4227C64.328 78.4227 63.4884 78.0767 62.8694 77.4607C62.2504 76.8447 61.9026 76.0093 61.9026 75.1382C61.9026 74.2671 62.2504 73.4316 62.8694 72.8156C63.4884 72.1997 64.328 71.8536 65.2034 71.8536ZM75.0894 71.8536C75.9648 71.8536 76.8044 72.1997 77.4234 72.8156C78.0425 73.4316 78.3902 74.2671 78.3902 75.1382C78.3902 76.0093 78.0425 76.8447 77.4234 77.4607C76.8044 78.0767 75.9648 78.4227 75.0894 78.4227C74.214 78.4227 73.3744 78.0767 72.7554 77.4607C72.1363 76.8447 71.7886 76.0093 71.7886 75.1382C71.7886 74.2671 72.1363 73.4316 72.7554 72.8156C73.3744 72.1997 74.214 71.8536 75.0894 71.8536V71.8536ZM84.9919 71.8536C85.8673 71.8536 86.7069 72.1997 87.3259 72.8156C87.9449 73.4316 88.2927 74.2671 88.2927 75.1382C88.2927 76.0093 87.9449 76.8447 87.3259 77.4607C86.7069 78.0767 85.8673 78.4227 84.9919 78.4227C84.1164 78.4227 83.2769 78.0767 82.6578 77.4607C82.0388 76.8447 81.691 76.0093 81.691 75.1382C81.691 74.2671 82.0388 73.4316 82.6578 72.8156C83.2769 72.1997 84.1164 71.8536 84.9919 71.8536V71.8536ZM94.8943 71.8536C95.7698 71.8536 96.6094 72.1997 97.2284 72.8156C97.8474 73.4316 98.1952 74.2671 98.1952 75.1382C98.1952 76.0093 97.8474 76.8447 97.2284 77.4607C96.6094 78.0767 95.7698 78.4227 94.8943 78.4227C94.0189 78.4227 93.1793 78.0767 92.5603 77.4607C91.9413 76.8447 91.5935 76.0093 91.5935 75.1382C91.5935 74.2671 91.9413 73.4316 92.5603 72.8156C93.1793 72.1997 94.0189 71.8536 94.8943 71.8536V71.8536ZM104.797 71.8536C105.672 71.8536 106.512 72.1997 107.131 72.8156C107.75 73.4316 108.098 74.2671 108.098 75.1382C108.098 76.0093 107.75 76.8447 107.131 77.4607C106.512 78.0767 105.672 78.4227 104.797 78.4227C103.921 78.4227 103.082 78.0767 102.463 77.4607C101.844 76.8447 101.496 76.0093 101.496 75.1382C101.496 74.2671 101.844 73.4316 102.463 72.8156C103.082 72.1997 103.921 71.8536 104.797 71.8536Z"
            fill="#EC7979" />
        <circle cx="85.0001" cy="85" r="45.5" stroke="#EC7979" />
    </symbol>
    <symbol id="lightning" width="170" height="170" viewBox="0 0 170 170" fill="none">
        <path
            d="M75.7308 117.811C75.2572 117.608 74.8637 117.249 74.6123 116.793C74.3608 116.336 74.2659 115.807 74.3423 115.289L78.5542 87.3575H67.3765C67.0221 87.3672 66.6703 87.2939 66.3482 87.1432C66.026 86.9925 65.7422 86.7684 65.5186 86.4882C65.2949 86.2081 65.1375 85.8793 65.0584 85.5274C64.9793 85.1754 64.9806 84.8096 65.0622 84.4583L72.0049 53.8158C72.1271 53.2885 72.4239 52.8201 72.8454 52.4895C73.2669 52.1589 73.7874 51.9864 74.3192 52.0008H97.4615C97.8072 51.9996 98.1488 52.0774 98.4612 52.2283C98.7735 52.3792 99.0488 52.5995 99.2666 52.873C99.4875 53.1495 99.6439 53.4735 99.724 53.8206C99.8042 54.1676 99.806 54.5287 99.7294 54.8765L95.7258 73.2149H106.718C107.152 73.214 107.577 73.3373 107.946 73.5706C108.314 73.804 108.61 74.1381 108.801 74.5348C108.967 74.9156 109.031 75.3343 108.986 75.7484C108.941 76.1624 108.79 76.557 108.547 76.892L78.4616 116.963C78.2583 117.27 77.9868 117.524 77.6692 117.704C77.3515 117.884 76.9967 117.986 76.6334 118C76.3237 117.994 76.0178 117.93 75.7308 117.811V117.811ZM89.9402 77.9291L94.5687 56.7151H76.1705L70.2924 82.6433H83.9695L80.2899 106.874L102.09 77.9291H89.9402Z"
            fill="#EC7979" />
        <circle cx="85" cy="85" r="45.5" stroke="#EC7979" />
    </symbol>
</svg>